ISO-10303-21;
HEADER;
/* Generated by software containing ST-Developer
 * from STEP Tools, Inc. (www.steptools.com) 
 */
/* OPTION: using custom renumber hook */

FILE_DESCRIPTION(
/* description */ ('STEP AP242 Edition 2',
'CAx-IF Rec.Pracs.---Representation and Presentation of Product Manufa
cturing Information (PMI)---4.0---2014-10-13',
'CAx-IF Rec.Pracs.---3D Tessellated Geometry---0.4---2014-09-14','2;1',
'CAx-IF Rec.Pracs.---User Defined Attributes---1.5---2016-08-15'),
/* implementation_level */ '2;1');

FILE_NAME(
/* name */ 'Part Studio 1 - Sawstop rail drawer',
/* time_stamp */ '2026-05-06T00:42:23Z',
/* author */ (''),
/* organization */ (''),
/* preprocessor_version */ 'ST-DEVELOPER v20',
/* originating_system */ 'ONSHAPE BY PTC INC, 1.214',
/* authorisation */ '  ');

FILE_SCHEMA (('AP242_MANAGED_MODEL_BASED_3D_ENGINEERING_MIM_LF { 1 0 10303 442 3 1 4 }'));
ENDSEC;

DATA;
#10=SHAPE_REPRESENTATION_RELATIONSHIP('','',#485,#11);
#11=ADVANCED_BREP_SHAPE_REPRESENTATION('',(#483),#780);
#12=CYLINDRICAL_SURFACE('',#513,0.005);
#13=CYLINDRICAL_SURFACE('',#514,0.005);
#14=CYLINDRICAL_SURFACE('',#515,0.005);
#15=CYLINDRICAL_SURFACE('',#516,0.005);
#16=CIRCLE('',#488,0.005);
#17=CIRCLE('',#489,0.005);
#18=CIRCLE('',#491,0.005);
#19=CIRCLE('',#497,0.005);
#20=CIRCLE('',#498,0.005);
#21=CIRCLE('',#502,0.005);
#22=CIRCLE('',#503,0.005);
#23=CIRCLE('',#504,0.005);
#24=ORIENTED_EDGE('',*,*,#154,.F.);
#25=ORIENTED_EDGE('',*,*,#155,.F.);
#26=ORIENTED_EDGE('',*,*,#156,.T.);
#27=ORIENTED_EDGE('',*,*,#157,.T.);
#28=ORIENTED_EDGE('',*,*,#158,.T.);
#29=ORIENTED_EDGE('',*,*,#159,.F.);
#30=ORIENTED_EDGE('',*,*,#160,.T.);
#31=ORIENTED_EDGE('',*,*,#161,.F.);
#32=ORIENTED_EDGE('',*,*,#162,.F.);
#33=ORIENTED_EDGE('',*,*,#163,.T.);
#34=ORIENTED_EDGE('',*,*,#157,.F.);
#35=ORIENTED_EDGE('',*,*,#164,.T.);
#36=ORIENTED_EDGE('',*,*,#165,.T.);
#37=ORIENTED_EDGE('',*,*,#166,.T.);
#38=ORIENTED_EDGE('',*,*,#167,.F.);
#39=ORIENTED_EDGE('',*,*,#168,.T.);
#40=ORIENTED_EDGE('',*,*,#169,.F.);
#41=ORIENTED_EDGE('',*,*,#170,.T.);
#42=ORIENTED_EDGE('',*,*,#171,.T.);
#43=ORIENTED_EDGE('',*,*,#172,.F.);
#44=ORIENTED_EDGE('',*,*,#173,.F.);
#45=ORIENTED_EDGE('',*,*,#159,.T.);
#46=ORIENTED_EDGE('',*,*,#174,.T.);
#47=ORIENTED_EDGE('',*,*,#175,.T.);
#48=ORIENTED_EDGE('',*,*,#176,.T.);
#49=ORIENTED_EDGE('',*,*,#177,.F.);
#50=ORIENTED_EDGE('',*,*,#178,.T.);
#51=ORIENTED_EDGE('',*,*,#179,.T.);
#52=ORIENTED_EDGE('',*,*,#180,.F.);
#53=ORIENTED_EDGE('',*,*,#181,.F.);
#54=ORIENTED_EDGE('',*,*,#182,.F.);
#55=ORIENTED_EDGE('',*,*,#183,.T.);
#56=ORIENTED_EDGE('',*,*,#184,.T.);
#57=ORIENTED_EDGE('',*,*,#180,.T.);
#58=ORIENTED_EDGE('',*,*,#185,.F.);
#59=ORIENTED_EDGE('',*,*,#166,.F.);
#60=ORIENTED_EDGE('',*,*,#186,.T.);
#61=ORIENTED_EDGE('',*,*,#165,.F.);
#62=ORIENTED_EDGE('',*,*,#187,.T.);
#63=ORIENTED_EDGE('',*,*,#169,.T.);
#64=ORIENTED_EDGE('',*,*,#188,.T.);
#65=ORIENTED_EDGE('',*,*,#177,.T.);
#66=ORIENTED_EDGE('',*,*,#186,.F.);
#67=ORIENTED_EDGE('',*,*,#189,.F.);
#68=ORIENTED_EDGE('',*,*,#190,.T.);
#69=ORIENTED_EDGE('',*,*,#162,.T.);
#70=ORIENTED_EDGE('',*,*,#191,.F.);
#71=ORIENTED_EDGE('',*,*,#161,.T.);
#72=ORIENTED_EDGE('',*,*,#192,.T.);
#73=ORIENTED_EDGE('',*,*,#193,.F.);
#74=ORIENTED_EDGE('',*,*,#191,.T.);
#75=ORIENTED_EDGE('',*,*,#193,.T.);
#76=ORIENTED_EDGE('',*,*,#194,.F.);
#77=ORIENTED_EDGE('',*,*,#172,.T.);
#78=ORIENTED_EDGE('',*,*,#195,.T.);
#79=ORIENTED_EDGE('',*,*,#196,.T.);
#80=ORIENTED_EDGE('',*,*,#197,.T.);
#81=ORIENTED_EDGE('',*,*,#167,.T.);
#82=ORIENTED_EDGE('',*,*,#185,.T.);
#83=ORIENTED_EDGE('',*,*,#179,.F.);
#84=ORIENTED_EDGE('',*,*,#198,.T.);
#85=ORIENTED_EDGE('',*,*,#175,.F.);
#86=ORIENTED_EDGE('',*,*,#199,.T.);
#87=ORIENTED_EDGE('',*,*,#189,.T.);
#88=ORIENTED_EDGE('',*,*,#200,.T.);
#89=ORIENTED_EDGE('',*,*,#201,.F.);
#90=ORIENTED_EDGE('',*,*,#202,.T.);
#91=ORIENTED_EDGE('',*,*,#203,.T.);
#92=ORIENTED_EDGE('',*,*,#201,.T.);
#93=ORIENTED_EDGE('',*,*,#204,.F.);
#94=ORIENTED_EDGE('',*,*,#205,.T.);
#95=ORIENTED_EDGE('',*,*,#183,.F.);
#96=ORIENTED_EDGE('',*,*,#206,.F.);
#97=ORIENTED_EDGE('',*,*,#207,.T.);
#98=ORIENTED_EDGE('',*,*,#202,.F.);
#99=ORIENTED_EDGE('',*,*,#207,.F.);
#100=ORIENTED_EDGE('',*,*,#208,.T.);
#101=ORIENTED_EDGE('',*,*,#209,.T.);
#102=ORIENTED_EDGE('',*,*,#210,.F.);
#103=ORIENTED_EDGE('',*,*,#211,.T.);
#104=ORIENTED_EDGE('',*,*,#209,.F.);
#105=ORIENTED_EDGE('',*,*,#212,.T.);
#106=ORIENTED_EDGE('',*,*,#181,.T.);
#107=ORIENTED_EDGE('',*,*,#213,.F.);
#108=ORIENTED_EDGE('',*,*,#206,.T.);
#109=ORIENTED_EDGE('',*,*,#182,.T.);
#110=ORIENTED_EDGE('',*,*,#212,.F.);
#111=ORIENTED_EDGE('',*,*,#208,.F.);
#112=ORIENTED_EDGE('',*,*,#203,.F.);
#113=ORIENTED_EDGE('',*,*,#211,.F.);
#114=ORIENTED_EDGE('',*,*,#214,.T.);
#115=ORIENTED_EDGE('',*,*,#215,.T.);
#116=ORIENTED_EDGE('',*,*,#200,.F.);
#117=ORIENTED_EDGE('',*,*,#215,.F.);
#118=ORIENTED_EDGE('',*,*,#216,.T.);
#119=ORIENTED_EDGE('',*,*,#204,.T.);
#120=ORIENTED_EDGE('',*,*,#210,.T.);
#121=ORIENTED_EDGE('',*,*,#213,.T.);
#122=ORIENTED_EDGE('',*,*,#184,.F.);
#123=ORIENTED_EDGE('',*,*,#205,.F.);
#124=ORIENTED_EDGE('',*,*,#216,.F.);
#125=ORIENTED_EDGE('',*,*,#214,.F.);
#126=ORIENTED_EDGE('',*,*,#187,.F.);
#127=ORIENTED_EDGE('',*,*,#164,.F.);
#128=ORIENTED_EDGE('',*,*,#156,.F.);
#129=ORIENTED_EDGE('',*,*,#170,.F.);
#130=ORIENTED_EDGE('',*,*,#217,.F.);
#131=ORIENTED_EDGE('',*,*,#158,.F.);
#132=ORIENTED_EDGE('',*,*,#168,.F.);
#133=ORIENTED_EDGE('',*,*,#197,.F.);
#134=ORIENTED_EDGE('',*,*,#199,.F.);
#135=ORIENTED_EDGE('',*,*,#174,.F.);
#136=ORIENTED_EDGE('',*,*,#163,.F.);
#137=ORIENTED_EDGE('',*,*,#190,.F.);
#138=ORIENTED_EDGE('',*,*,#188,.F.);
#139=ORIENTED_EDGE('',*,*,#176,.F.);
#140=ORIENTED_EDGE('',*,*,#198,.F.);
#141=ORIENTED_EDGE('',*,*,#178,.F.);
#142=ORIENTED_EDGE('',*,*,#194,.T.);
#143=ORIENTED_EDGE('',*,*,#192,.F.);
#144=ORIENTED_EDGE('',*,*,#160,.F.);
#145=ORIENTED_EDGE('',*,*,#173,.T.);
#146=ORIENTED_EDGE('',*,*,#195,.F.);
#147=ORIENTED_EDGE('',*,*,#171,.F.);
#148=ORIENTED_EDGE('',*,*,#155,.T.);
#149=ORIENTED_EDGE('',*,*,#218,.T.);
#150=ORIENTED_EDGE('',*,*,#196,.F.);
#151=ORIENTED_EDGE('',*,*,#218,.F.);
#152=ORIENTED_EDGE('',*,*,#154,.T.);
#153=ORIENTED_EDGE('',*,*,#217,.T.);
#154=EDGE_CURVE('',#219,#220,#262,.T.);
#155=EDGE_CURVE('',#221,#219,#263,.T.);
#156=EDGE_CURVE('',#221,#222,#16,.F.);
#157=EDGE_CURVE('',#222,#223,#264,.T.);
#158=EDGE_CURVE('',#223,#220,#17,.T.);
#159=EDGE_CURVE('',#224,#225,#265,.T.);
#160=EDGE_CURVE('',#224,#226,#266,.T.);
#161=EDGE_CURVE('',#227,#226,#267,.T.);
#162=EDGE_CURVE('',#228,#227,#268,.T.);
#163=EDGE_CURVE('',#228,#225,#18,.T.);
#164=EDGE_CURVE('',#222,#229,#269,.F.);
#165=EDGE_CURVE('',#229,#230,#270,.T.);
#166=EDGE_CURVE('',#230,#231,#271,.T.);
#167=EDGE_CURVE('',#232,#231,#272,.T.);
#168=EDGE_CURVE('',#232,#223,#273,.T.);
#169=EDGE_CURVE('',#233,#234,#274,.T.);
#170=EDGE_CURVE('',#233,#221,#275,.T.);
#171=EDGE_CURVE('',#221,#235,#276,.T.);
#172=EDGE_CURVE('',#236,#235,#277,.T.);
#173=EDGE_CURVE('',#224,#236,#278,.T.);
#174=EDGE_CURVE('',#225,#237,#279,.F.);
#175=EDGE_CURVE('',#237,#238,#280,.T.);
#176=EDGE_CURVE('',#238,#234,#281,.F.);
#177=EDGE_CURVE('',#239,#240,#282,.T.);
#178=EDGE_CURVE('',#239,#241,#283,.T.);
#179=EDGE_CURVE('',#241,#242,#284,.T.);
#180=EDGE_CURVE('',#240,#242,#285,.T.);
#181=EDGE_CURVE('',#243,#244,#286,.T.);
#182=EDGE_CURVE('',#245,#243,#287,.T.);
#183=EDGE_CURVE('',#245,#246,#288,.T.);
#184=EDGE_CURVE('',#246,#244,#289,.T.);
#185=EDGE_CURVE('',#231,#242,#290,.T.);
#186=EDGE_CURVE('',#230,#240,#291,.T.);
#187=EDGE_CURVE('',#229,#233,#19,.T.);
#188=EDGE_CURVE('',#234,#239,#20,.T.);
#189=EDGE_CURVE('',#247,#248,#292,.T.);
#190=EDGE_CURVE('',#247,#228,#293,.T.);
#191=EDGE_CURVE('',#248,#227,#294,.T.);
#192=EDGE_CURVE('',#226,#249,#295,.T.);
#193=EDGE_CURVE('',#248,#249,#296,.T.);
#194=EDGE_CURVE('',#236,#249,#297,.T.);
#195=EDGE_CURVE('',#235,#250,#298,.T.);
#196=EDGE_CURVE('',#250,#251,#299,.T.);
#197=EDGE_CURVE('',#251,#232,#21,.T.);
#198=EDGE_CURVE('',#241,#238,#22,.T.);
#199=EDGE_CURVE('',#237,#247,#23,.T.);
#200=EDGE_CURVE('',#252,#253,#300,.T.);
#201=EDGE_CURVE('',#254,#253,#301,.T.);
#202=EDGE_CURVE('',#254,#255,#302,.T.);
#203=EDGE_CURVE('',#255,#252,#303,.T.);
#204=EDGE_CURVE('',#256,#253,#304,.T.);
#205=EDGE_CURVE('',#256,#246,#305,.T.);
#206=EDGE_CURVE('',#257,#245,#306,.T.);
#207=EDGE_CURVE('',#257,#254,#307,.T.);
#208=EDGE_CURVE('',#257,#258,#308,.T.);
#209=EDGE_CURVE('',#258,#259,#309,.T.);
#210=EDGE_CURVE('',#260,#259,#310,.T.);
#211=EDGE_CURVE('',#260,#255,#311,.T.);
#212=EDGE_CURVE('',#258,#243,#312,.T.);
#213=EDGE_CURVE('',#259,#244,#313,.T.);
#214=EDGE_CURVE('',#260,#261,#314,.T.);
#215=EDGE_CURVE('',#261,#252,#315,.T.);
#216=EDGE_CURVE('',#261,#256,#316,.T.);
#217=EDGE_CURVE('',#220,#251,#317,.T.);
#218=EDGE_CURVE('',#219,#250,#318,.T.);
#219=VERTEX_POINT('',#648);
#220=VERTEX_POINT('',#649);
#221=VERTEX_POINT('',#651);
#222=VERTEX_POINT('',#653);
#223=VERTEX_POINT('',#655);
#224=VERTEX_POINT('',#659);
#225=VERTEX_POINT('',#660);
#226=VERTEX_POINT('',#662);
#227=VERTEX_POINT('',#664);
#228=VERTEX_POINT('',#666);
#229=VERTEX_POINT('',#670);
#230=VERTEX_POINT('',#672);
#231=VERTEX_POINT('',#674);
#232=VERTEX_POINT('',#676);
#233=VERTEX_POINT('',#680);
#234=VERTEX_POINT('',#681);
#235=VERTEX_POINT('',#684);
#236=VERTEX_POINT('',#686);
#237=VERTEX_POINT('',#689);
#238=VERTEX_POINT('',#691);
#239=VERTEX_POINT('',#695);
#240=VERTEX_POINT('',#696);
#241=VERTEX_POINT('',#698);
#242=VERTEX_POINT('',#700);
#243=VERTEX_POINT('',#704);
#244=VERTEX_POINT('',#705);
#245=VERTEX_POINT('',#707);
#246=VERTEX_POINT('',#709);
#247=VERTEX_POINT('',#718);
#248=VERTEX_POINT('',#719);
#249=VERTEX_POINT('',#724);
#250=VERTEX_POINT('',#729);
#251=VERTEX_POINT('',#731);
#252=VERTEX_POINT('',#737);
#253=VERTEX_POINT('',#738);
#254=VERTEX_POINT('',#740);
#255=VERTEX_POINT('',#742);
#256=VERTEX_POINT('',#746);
#257=VERTEX_POINT('',#749);
#258=VERTEX_POINT('',#753);
#259=VERTEX_POINT('',#755);
#260=VERTEX_POINT('',#757);
#261=VERTEX_POINT('',#765);
#262=LINE('',#647,#319);
#263=LINE('',#650,#320);
#264=LINE('',#654,#321);
#265=LINE('',#658,#322);
#266=LINE('',#661,#323);
#267=LINE('',#663,#324);
#268=LINE('',#665,#325);
#269=LINE('',#669,#326);
#270=LINE('',#671,#327);
#271=LINE('',#673,#328);
#272=LINE('',#675,#329);
#273=LINE('',#677,#330);
#274=LINE('',#679,#331);
#275=LINE('',#682,#332);
#276=LINE('',#683,#333);
#277=LINE('',#685,#334);
#278=LINE('',#687,#335);
#279=LINE('',#688,#336);
#280=LINE('',#690,#337);
#281=LINE('',#692,#338);
#282=LINE('',#694,#339);
#283=LINE('',#697,#340);
#284=LINE('',#699,#341);
#285=LINE('',#701,#342);
#286=LINE('',#703,#343);
#287=LINE('',#706,#344);
#288=LINE('',#708,#345);
#289=LINE('',#710,#346);
#290=LINE('',#711,#347);
#291=LINE('',#712,#348);
#292=LINE('',#717,#349);
#293=LINE('',#720,#350);
#294=LINE('',#721,#351);
#295=LINE('',#723,#352);
#296=LINE('',#725,#353);
#297=LINE('',#727,#354);
#298=LINE('',#728,#355);
#299=LINE('',#730,#356);
#300=LINE('',#736,#357);
#301=LINE('',#739,#358);
#302=LINE('',#741,#359);
#303=LINE('',#743,#360);
#304=LINE('',#745,#361);
#305=LINE('',#747,#362);
#306=LINE('',#748,#363);
#307=LINE('',#750,#364);
#308=LINE('',#752,#365);
#309=LINE('',#754,#366);
#310=LINE('',#756,#367);
#311=LINE('',#758,#368);
#312=LINE('',#760,#369);
#313=LINE('',#761,#370);
#314=LINE('',#764,#371);
#315=LINE('',#766,#372);
#316=LINE('',#768,#373);
#317=LINE('',#772,#374);
#318=LINE('',#777,#375);
#319=VECTOR('',#524,1.);
#320=VECTOR('',#525,1.);
#321=VECTOR('',#528,1.);
#322=VECTOR('',#533,1.);
#323=VECTOR('',#534,1.);
#324=VECTOR('',#535,1.);
#325=VECTOR('',#536,1.);
#326=VECTOR('',#541,1.);
#327=VECTOR('',#542,1.);
#328=VECTOR('',#543,1.);
#329=VECTOR('',#544,1.);
#330=VECTOR('',#545,1.);
#331=VECTOR('',#548,1.);
#332=VECTOR('',#549,1.);
#333=VECTOR('',#550,1.);
#334=VECTOR('',#551,1.);
#335=VECTOR('',#552,1.);
#336=VECTOR('',#553,1.);
#337=VECTOR('',#554,1.);
#338=VECTOR('',#555,1.);
#339=VECTOR('',#558,1.);
#340=VECTOR('',#559,1.);
#341=VECTOR('',#560,1.);
#342=VECTOR('',#561,1.);
#343=VECTOR('',#564,1.);
#344=VECTOR('',#565,1.);
#345=VECTOR('',#566,1.);
#346=VECTOR('',#567,1.);
#347=VECTOR('',#568,1.);
#348=VECTOR('',#569,1.);
#349=VECTOR('',#578,1.);
#350=VECTOR('',#579,1.);
#351=VECTOR('',#580,1.);
#352=VECTOR('',#583,1.);
#353=VECTOR('',#584,1.);
#354=VECTOR('',#587,1.);
#355=VECTOR('',#588,1.);
#356=VECTOR('',#589,1.);
#357=VECTOR('',#598,1.);
#358=VECTOR('',#599,1.);
#359=VECTOR('',#600,1.);
#360=VECTOR('',#601,1.);
#361=VECTOR('',#604,1.);
#362=VECTOR('',#605,1.);
#363=VECTOR('',#606,1.);
#364=VECTOR('',#607,1.);
#365=VECTOR('',#610,1.);
#366=VECTOR('',#611,1.);
#367=VECTOR('',#612,1.);
#368=VECTOR('',#613,1.);
#369=VECTOR('',#616,1.);
#370=VECTOR('',#617,1.);
#371=VECTOR('',#622,1.);
#372=VECTOR('',#623,1.);
#373=VECTOR('',#626,1.);
#374=VECTOR('',#633,1.);
#375=VECTOR('',#642,1.);
#376=EDGE_LOOP('',(#24,#25,#26,#27,#28));
#377=EDGE_LOOP('',(#29,#30,#31,#32,#33));
#378=EDGE_LOOP('',(#34,#35,#36,#37,#38,#39));
#379=EDGE_LOOP('',(#40,#41,#42,#43,#44,#45,#46,#47,#48));
#380=EDGE_LOOP('',(#49,#50,#51,#52));
#381=EDGE_LOOP('',(#53,#54,#55,#56));
#382=EDGE_LOOP('',(#57,#58,#59,#60));
#383=EDGE_LOOP('',(#61,#62,#63,#64,#65,#66));
#384=EDGE_LOOP('',(#67,#68,#69,#70));
#385=EDGE_LOOP('',(#71,#72,#73,#74));
#386=EDGE_LOOP('',(#75,#76,#77,#78,#79,#80,#81,#82,#83,#84,#85,#86,#87));
#387=EDGE_LOOP('',(#88,#89,#90,#91));
#388=EDGE_LOOP('',(#92,#93,#94,#95,#96,#97));
#389=EDGE_LOOP('',(#98,#99,#100,#101,#102,#103));
#390=EDGE_LOOP('',(#104,#105,#106,#107));
#391=EDGE_LOOP('',(#108,#109,#110,#111));
#392=EDGE_LOOP('',(#112,#113,#114,#115));
#393=EDGE_LOOP('',(#116,#117,#118,#119));
#394=EDGE_LOOP('',(#120,#121,#122,#123,#124,#125));
#395=EDGE_LOOP('',(#126,#127,#128,#129));
#396=EDGE_LOOP('',(#130,#131,#132,#133));
#397=EDGE_LOOP('',(#134,#135,#136,#137));
#398=EDGE_LOOP('',(#138,#139,#140,#141));
#399=EDGE_LOOP('',(#142,#143,#144,#145));
#400=EDGE_LOOP('',(#146,#147,#148,#149));
#401=EDGE_LOOP('',(#150,#151,#152,#153));
#402=FACE_BOUND('',#376,.T.);
#403=FACE_BOUND('',#377,.T.);
#404=FACE_BOUND('',#378,.T.);
#405=FACE_BOUND('',#379,.T.);
#406=FACE_BOUND('',#380,.T.);
#407=FACE_BOUND('',#381,.T.);
#408=FACE_BOUND('',#382,.T.);
#409=FACE_BOUND('',#383,.T.);
#410=FACE_BOUND('',#384,.T.);
#411=FACE_BOUND('',#385,.T.);
#412=FACE_BOUND('',#386,.T.);
#413=FACE_BOUND('',#387,.T.);
#414=FACE_BOUND('',#388,.T.);
#415=FACE_BOUND('',#389,.T.);
#416=FACE_BOUND('',#390,.T.);
#417=FACE_BOUND('',#391,.T.);
#418=FACE_BOUND('',#392,.T.);
#419=FACE_BOUND('',#393,.T.);
#420=FACE_BOUND('',#394,.T.);
#421=FACE_BOUND('',#395,.T.);
#422=FACE_BOUND('',#396,.T.);
#423=FACE_BOUND('',#397,.T.);
#424=FACE_BOUND('',#398,.T.);
#425=FACE_BOUND('',#399,.T.);
#426=FACE_BOUND('',#400,.T.);
#427=FACE_BOUND('',#401,.T.);
#428=PLANE('',#487);
#429=PLANE('',#490);
#430=PLANE('',#492);
#431=PLANE('',#493);
#432=PLANE('',#494);
#433=PLANE('',#495);
#434=PLANE('',#496);
#435=PLANE('',#499);
#436=PLANE('',#500);
#437=PLANE('',#501);
#438=PLANE('',#505);
#439=PLANE('',#506);
#440=PLANE('',#507);
#441=PLANE('',#508);
#442=PLANE('',#509);
#443=PLANE('',#510);
#444=PLANE('',#511);
#445=PLANE('',#512);
#446=PLANE('',#517);
#447=PLANE('',#518);
#448=PLANE('',#519);
#449=ADVANCED_FACE('',(#402),#428,.F.);
#450=ADVANCED_FACE('',(#403),#429,.F.);
#451=ADVANCED_FACE('',(#404),#430,.T.);
#452=ADVANCED_FACE('',(#405),#431,.F.);
#453=ADVANCED_FACE('',(#406),#432,.F.);
#454=ADVANCED_FACE('',(#407,#408),#433,.T.);
#455=ADVANCED_FACE('',(#409),#434,.T.);
#456=ADVANCED_FACE('',(#410),#435,.F.);
#457=ADVANCED_FACE('',(#411),#436,.F.);
#458=ADVANCED_FACE('',(#412),#437,.T.);
#459=ADVANCED_FACE('',(#413),#438,.T.);
#460=ADVANCED_FACE('',(#414),#439,.F.);
#461=ADVANCED_FACE('',(#415),#440,.T.);
#462=ADVANCED_FACE('',(#416),#441,.T.);
#463=ADVANCED_FACE('',(#417),#442,.F.);
#464=ADVANCED_FACE('',(#418),#443,.T.);
#465=ADVANCED_FACE('',(#419),#444,.T.);
#466=ADVANCED_FACE('',(#420),#445,.F.);
#467=ADVANCED_FACE('',(#421),#12,.T.);
#468=ADVANCED_FACE('',(#422),#13,.T.);
#469=ADVANCED_FACE('',(#423),#14,.T.);
#470=ADVANCED_FACE('',(#424),#15,.T.);
#471=ADVANCED_FACE('',(#425),#446,.F.);
#472=ADVANCED_FACE('',(#426),#447,.T.);
#473=ADVANCED_FACE('',(#427),#448,.T.);
#474=CLOSED_SHELL('',(#449,#450,#451,#452,#453,#454,#455,#456,#457,#458,
#459,#460,#461,#462,#463,#464,#465,#466,#467,#468,#469,#470,#471,#472,#473));
#475=STYLED_ITEM('',(#476),#483);
#476=PRESENTATION_STYLE_ASSIGNMENT((#477));
#477=SURFACE_STYLE_USAGE(.BOTH.,#478);
#478=SURFACE_SIDE_STYLE('',(#479));
#479=SURFACE_STYLE_FILL_AREA(#480);
#480=FILL_AREA_STYLE('',(#481));
#481=FILL_AREA_STYLE_COLOUR('',#482);
#482=COLOUR_RGB('',0.615686274509804,0.811764705882353,0.929411764705882);
#483=MANIFOLD_SOLID_BREP('Sawstop rail drawer',#474);
#484=SHAPE_DEFINITION_REPRESENTATION(#785,#485);
#485=SHAPE_REPRESENTATION('Sawstop rail drawer',(#486),#780);
#486=AXIS2_PLACEMENT_3D('',#645,#520,#521);
#487=AXIS2_PLACEMENT_3D('',#646,#522,#523);
#488=AXIS2_PLACEMENT_3D('',#652,#526,#527);
#489=AXIS2_PLACEMENT_3D('',#656,#529,#530);
#490=AXIS2_PLACEMENT_3D('',#657,#531,#532);
#491=AXIS2_PLACEMENT_3D('',#667,#537,#538);
#492=AXIS2_PLACEMENT_3D('',#668,#539,#540);
#493=AXIS2_PLACEMENT_3D('',#678,#546,#547);
#494=AXIS2_PLACEMENT_3D('',#693,#556,#557);
#495=AXIS2_PLACEMENT_3D('',#702,#562,#563);
#496=AXIS2_PLACEMENT_3D('',#713,#570,#571);
#497=AXIS2_PLACEMENT_3D('',#714,#572,#573);
#498=AXIS2_PLACEMENT_3D('',#715,#574,#575);
#499=AXIS2_PLACEMENT_3D('',#716,#576,#577);
#500=AXIS2_PLACEMENT_3D('',#722,#581,#582);
#501=AXIS2_PLACEMENT_3D('',#726,#585,#586);
#502=AXIS2_PLACEMENT_3D('',#732,#590,#591);
#503=AXIS2_PLACEMENT_3D('',#733,#592,#593);
#504=AXIS2_PLACEMENT_3D('',#734,#594,#595);
#505=AXIS2_PLACEMENT_3D('',#735,#596,#597);
#506=AXIS2_PLACEMENT_3D('',#744,#602,#603);
#507=AXIS2_PLACEMENT_3D('',#751,#608,#609);
#508=AXIS2_PLACEMENT_3D('',#759,#614,#615);
#509=AXIS2_PLACEMENT_3D('',#762,#618,#619);
#510=AXIS2_PLACEMENT_3D('',#763,#620,#621);
#511=AXIS2_PLACEMENT_3D('',#767,#624,#625);
#512=AXIS2_PLACEMENT_3D('',#769,#627,#628);
#513=AXIS2_PLACEMENT_3D('',#770,#629,#630);
#514=AXIS2_PLACEMENT_3D('',#771,#631,#632);
#515=AXIS2_PLACEMENT_3D('',#773,#634,#635);
#516=AXIS2_PLACEMENT_3D('',#774,#636,#637);
#517=AXIS2_PLACEMENT_3D('',#775,#638,#639);
#518=AXIS2_PLACEMENT_3D('',#776,#640,#641);
#519=AXIS2_PLACEMENT_3D('',#778,#643,#644);
#520=DIRECTION('',(0.,0.,1.));
#521=DIRECTION('',(1.,0.,0.));
#522=DIRECTION('',(0.,-1.,0.));
#523=DIRECTION('',(1.,0.,0.));
#524=DIRECTION('',(-0.707106781186548,0.,0.707106781186548));
#525=DIRECTION('',(0.,0.,1.));
#526=DIRECTION('',(0.,-1.,0.));
#527=DIRECTION('',(0.,0.,-1.));
#528=DIRECTION('',(0.,0.,1.));
#529=DIRECTION('',(0.,-1.,0.));
#530=DIRECTION('',(0.,0.,-1.));
#531=DIRECTION('',(0.,-1.,0.));
#532=DIRECTION('',(1.,0.,0.));
#533=DIRECTION('',(1.,0.,0.));
#534=DIRECTION('',(0.707106781186548,0.,0.707106781186547));
#535=DIRECTION('',(-1.,0.,0.));
#536=DIRECTION('',(0.,0.,1.));
#537=DIRECTION('',(0.,-1.,0.));
#538=DIRECTION('',(0.,0.,-1.));
#539=DIRECTION('',(-1.,0.,0.));
#540=DIRECTION('',(0.,0.,1.));
#541=DIRECTION('',(0.,1.,0.));
#542=DIRECTION('',(0.,0.,1.));
#543=DIRECTION('',(0.,1.,0.));
#544=DIRECTION('',(0.,0.,1.));
#545=DIRECTION('',(0.,-1.,0.));
#546=DIRECTION('',(0.,0.,1.));
#547=DIRECTION('',(1.,0.,0.));
#548=DIRECTION('',(1.,0.,0.));
#549=DIRECTION('',(0.,1.,0.));
#550=DIRECTION('',(0.,1.,0.));
#551=DIRECTION('',(-1.,0.,0.));
#552=DIRECTION('',(0.,1.,0.));
#553=DIRECTION('',(0.,-1.,0.));
#554=DIRECTION('',(1.,0.,0.));
#555=DIRECTION('',(0.,1.,0.));
#556=DIRECTION('',(-1.,0.,0.));
#557=DIRECTION('',(0.,0.,1.));
#558=DIRECTION('',(0.,0.,1.));
#559=DIRECTION('',(0.,1.,0.));
#560=DIRECTION('',(0.,0.,1.));
#561=DIRECTION('',(0.,1.,0.));
#562=DIRECTION('',(0.,0.,1.));
#563=DIRECTION('',(1.,0.,0.));
#564=DIRECTION('',(0.,1.,0.));
#565=DIRECTION('',(1.,0.,0.));
#566=DIRECTION('',(0.,1.,0.));
#567=DIRECTION('',(1.,0.,0.));
#568=DIRECTION('',(1.,0.,0.));
#569=DIRECTION('',(1.,0.,0.));
#570=DIRECTION('',(0.,-1.,0.));
#571=DIRECTION('',(1.,0.,0.));
#572=DIRECTION('',(0.,-1.,0.));
#573=DIRECTION('',(0.,0.,-1.));
#574=DIRECTION('',(0.,-1.,0.));
#575=DIRECTION('',(0.,0.,-1.));
#576=DIRECTION('',(1.,0.,0.));
#577=DIRECTION('',(0.,0.,-1.));
#578=DIRECTION('',(0.,0.,1.));
#579=DIRECTION('',(0.,-1.,0.));
#580=DIRECTION('',(0.,-1.,0.));
#581=DIRECTION('',(0.,0.,1.));
#582=DIRECTION('',(1.,0.,0.));
#583=DIRECTION('',(0.,1.,0.));
#584=DIRECTION('',(-1.,0.,0.));
#585=DIRECTION('',(0.,1.,0.));
#586=DIRECTION('',(-1.,0.,0.));
#587=DIRECTION('',(0.707106781186548,0.,0.707106781186547));
#588=DIRECTION('',(0.,0.,1.));
#589=DIRECTION('',(-0.707106781186548,0.,0.707106781186548));
#590=DIRECTION('',(0.,1.,0.));
#591=DIRECTION('',(0.,0.,1.));
#592=DIRECTION('',(0.,1.,0.));
#593=DIRECTION('',(0.,0.,1.));
#594=DIRECTION('',(0.,1.,0.));
#595=DIRECTION('',(0.,0.,1.));
#596=DIRECTION('',(0.,-1.,0.));
#597=DIRECTION('',(1.,0.,0.));
#598=DIRECTION('',(-1.,0.,0.));
#599=DIRECTION('',(0.,0.,1.));
#600=DIRECTION('',(1.,0.,0.));
#601=DIRECTION('',(0.,0.,1.));
#602=DIRECTION('',(-1.,0.,0.));
#603=DIRECTION('',(0.,0.,1.));
#604=DIRECTION('',(0.,-1.,0.));
#605=DIRECTION('',(0.,0.,1.));
#606=DIRECTION('',(0.,0.,1.));
#607=DIRECTION('',(0.,1.,0.));
#608=DIRECTION('',(0.,0.,1.));
#609=DIRECTION('',(1.,0.,0.));
#610=DIRECTION('',(1.,0.,0.));
#611=DIRECTION('',(0.,1.,0.));
#612=DIRECTION('',(1.,0.,0.));
#613=DIRECTION('',(0.,-1.,0.));
#614=DIRECTION('',(-1.,0.,0.));
#615=DIRECTION('',(0.,0.,1.));
#616=DIRECTION('',(0.,0.,1.));
#617=DIRECTION('',(0.,0.,1.));
#618=DIRECTION('',(0.,-1.,0.));
#619=DIRECTION('',(1.,0.,0.));
#620=DIRECTION('',(1.,0.,0.));
#621=DIRECTION('',(0.,0.,-1.));
#622=DIRECTION('',(0.,0.,1.));
#623=DIRECTION('',(0.,-1.,0.));
#624=DIRECTION('',(0.,0.,1.));
#625=DIRECTION('',(1.,0.,0.));
#626=DIRECTION('',(-1.,0.,0.));
#627=DIRECTION('',(0.,1.,0.));
#628=DIRECTION('',(-1.,0.,0.));
#629=DIRECTION('',(0.,-1.,0.));
#630=DIRECTION('',(0.,0.,-1.));
#631=DIRECTION('',(0.,1.,0.));
#632=DIRECTION('',(0.,0.,1.));
#633=DIRECTION('',(0.,1.,0.));
#634=DIRECTION('',(0.,-1.,0.));
#635=DIRECTION('',(0.,0.,-1.));
#636=DIRECTION('',(0.,1.,0.));
#637=DIRECTION('',(0.,0.,1.));
#638=DIRECTION('',(-0.707106781186547,0.,0.707106781186548));
#639=DIRECTION('',(0.707106781186548,0.,0.707106781186547));
#640=DIRECTION('',(-1.,0.,0.));
#641=DIRECTION('',(0.,0.,1.));
#642=DIRECTION('',(0.,1.,0.));
#643=DIRECTION('',(-0.707106781186548,0.,-0.707106781186548));
#644=DIRECTION('',(-0.707106781186548,0.,0.707106781186548));
#645=CARTESIAN_POINT('',(0.,0.,0.));
#646=CARTESIAN_POINT('',(0.034,0.,0.0215));
#647=CARTESIAN_POINT('',(0.00323223304703363,0.,0.00969669914110089));
#648=CARTESIAN_POINT('',(0.005,0.,0.00792893218813452));
#649=CARTESIAN_POINT('',(0.00146446609406726,0.,0.0114644660940673));
#650=CARTESIAN_POINT('',(0.005,0.,0.00396446609406726));
#651=CARTESIAN_POINT('',(0.005,0.,0.));
#652=CARTESIAN_POINT('',(0.005,0.,0.005));
#653=CARTESIAN_POINT('',(0.,0.,0.005));
#654=CARTESIAN_POINT('',(0.,0.,0.0215));
#655=CARTESIAN_POINT('',(0.,0.,0.015));
#656=CARTESIAN_POINT('',(0.005,0.,0.015));
#657=CARTESIAN_POINT('',(0.034,0.,0.0215));
#658=CARTESIAN_POINT('',(0.034,0.,0.));
#659=CARTESIAN_POINT('',(0.006,0.,0.));
#660=CARTESIAN_POINT('',(0.027,0.,0.));
#661=CARTESIAN_POINT('',(0.011,0.,0.005));
#662=CARTESIAN_POINT('',(0.016,0.,0.01));
#663=CARTESIAN_POINT('',(0.011,0.,0.01));
#664=CARTESIAN_POINT('',(0.022,0.,0.01));
#665=CARTESIAN_POINT('',(0.022,0.,0.005));
#666=CARTESIAN_POINT('',(0.022,0.,0.005));
#667=CARTESIAN_POINT('',(0.027,0.,0.005));
#668=CARTESIAN_POINT('',(0.,-0.1016,0.0215));
#669=CARTESIAN_POINT('',(0.,-0.1016,0.005));
#670=CARTESIAN_POINT('',(0.,-0.1016,0.005));
#671=CARTESIAN_POINT('',(0.,-0.1016,0.0215));
#672=CARTESIAN_POINT('',(-6.93889390390723E-18,-0.1016,0.043));
#673=CARTESIAN_POINT('',(-6.93889390390723E-18,-0.1016,0.043));
#674=CARTESIAN_POINT('',(-6.93889390390723E-18,0.075,0.043));
#675=CARTESIAN_POINT('',(0.,0.075,0.0215));
#676=CARTESIAN_POINT('',(0.,0.075,0.015));
#677=CARTESIAN_POINT('',(0.,0.,0.015));
#678=CARTESIAN_POINT('',(0.034,-0.1016,0.));
#679=CARTESIAN_POINT('',(0.034,-0.1016,0.));
#680=CARTESIAN_POINT('',(0.005,-0.1016,0.));
#681=CARTESIAN_POINT('',(0.063,-0.1016,0.));
#682=CARTESIAN_POINT('',(0.005,0.,0.));
#683=CARTESIAN_POINT('',(0.005,0.,0.));
#684=CARTESIAN_POINT('',(0.005,0.075,0.));
#685=CARTESIAN_POINT('',(0.0055,0.075,0.));
#686=CARTESIAN_POINT('',(0.006,0.075,0.));
#687=CARTESIAN_POINT('',(0.006,0.,0.));
#688=CARTESIAN_POINT('',(0.027,-0.1016,0.));
#689=CARTESIAN_POINT('',(0.027,0.075,0.));
#690=CARTESIAN_POINT('',(0.034,0.075,0.));
#691=CARTESIAN_POINT('',(0.063,0.075,0.));
#692=CARTESIAN_POINT('',(0.063,-0.1016,0.));
#693=CARTESIAN_POINT('',(0.068,-0.1016,0.0215));
#694=CARTESIAN_POINT('',(0.068,-0.1016,0.0215));
#695=CARTESIAN_POINT('',(0.068,-0.1016,0.005));
#696=CARTESIAN_POINT('',(0.068,-0.1016,0.043));
#697=CARTESIAN_POINT('',(0.068,-0.1016,0.005));
#698=CARTESIAN_POINT('',(0.068,0.075,0.005));
#699=CARTESIAN_POINT('',(0.068,0.075,0.0215));
#700=CARTESIAN_POINT('',(0.068,0.075,0.043));
#701=CARTESIAN_POINT('',(0.068,-0.1016,0.043));
#702=CARTESIAN_POINT('',(0.034,-0.1016,0.043));
#703=CARTESIAN_POINT('',(0.066,-0.1016,0.043));
#704=CARTESIAN_POINT('',(0.066,-0.0996,0.043));
#705=CARTESIAN_POINT('',(0.066,0.073,0.043));
#706=CARTESIAN_POINT('',(0.034,-0.0996,0.043));
#707=CARTESIAN_POINT('',(0.002,-0.0996,0.043));
#708=CARTESIAN_POINT('',(0.002,-0.1016,0.043));
#709=CARTESIAN_POINT('',(0.002,0.073,0.043));
#710=CARTESIAN_POINT('',(0.034,0.073,0.043));
#711=CARTESIAN_POINT('',(0.034,0.075,0.043));
#712=CARTESIAN_POINT('',(0.034,-0.1016,0.043));
#713=CARTESIAN_POINT('',(0.034,-0.1016,0.0215));
#714=CARTESIAN_POINT('',(0.005,-0.1016,0.005));
#715=CARTESIAN_POINT('',(0.063,-0.1016,0.005));
#716=CARTESIAN_POINT('',(0.022,0.075,0.005));
#717=CARTESIAN_POINT('',(0.022,0.075,0.005));
#718=CARTESIAN_POINT('',(0.022,0.075,0.005));
#719=CARTESIAN_POINT('',(0.022,0.075,0.01));
#720=CARTESIAN_POINT('',(0.022,0.075,0.005));
#721=CARTESIAN_POINT('',(0.022,0.075,0.01));
#722=CARTESIAN_POINT('',(0.011,0.075,0.01));
#723=CARTESIAN_POINT('',(0.016,0.,0.01));
#724=CARTESIAN_POINT('',(0.016,0.075,0.01));
#725=CARTESIAN_POINT('',(0.011,0.075,0.01));
#726=CARTESIAN_POINT('',(0.034,0.075,0.0215));
#727=CARTESIAN_POINT('',(0.011,0.075,0.005));
#728=CARTESIAN_POINT('',(0.005,0.075,0.00396446609406726));
#729=CARTESIAN_POINT('',(0.005,0.075,0.00792893218813452));
#730=CARTESIAN_POINT('',(0.00323223304703363,0.075,0.00969669914110089));
#731=CARTESIAN_POINT('',(0.00146446609406726,0.075,0.0114644660940673));
#732=CARTESIAN_POINT('',(0.005,0.075,0.015));
#733=CARTESIAN_POINT('',(0.063,0.075,0.005));
#734=CARTESIAN_POINT('',(0.027,0.075,0.005));
#735=CARTESIAN_POINT('',(0.034,-0.002,0.0215));
#736=CARTESIAN_POINT('',(0.034,-0.002,0.012));
#737=CARTESIAN_POINT('',(0.024,-0.002,0.012));
#738=CARTESIAN_POINT('',(0.002,-0.002,0.012));
#739=CARTESIAN_POINT('',(0.002,-0.002,0.0215));
#740=CARTESIAN_POINT('',(0.002,-0.002,0.002));
#741=CARTESIAN_POINT('',(0.034,-0.002,0.002));
#742=CARTESIAN_POINT('',(0.024,-0.002,0.002));
#743=CARTESIAN_POINT('',(0.024,-0.002,0.0215));
#744=CARTESIAN_POINT('',(0.002,-0.1016,0.0215));
#745=CARTESIAN_POINT('',(0.002,0.075,0.012));
#746=CARTESIAN_POINT('',(0.002,0.073,0.012));
#747=CARTESIAN_POINT('',(0.002,0.073,0.0215));
#748=CARTESIAN_POINT('',(0.002,-0.0996,0.0215));
#749=CARTESIAN_POINT('',(0.002,-0.0996,0.002));
#750=CARTESIAN_POINT('',(0.002,-0.1016,0.002));
#751=CARTESIAN_POINT('',(0.034,-0.1016,0.002));
#752=CARTESIAN_POINT('',(0.034,-0.0996,0.002));
#753=CARTESIAN_POINT('',(0.066,-0.0996,0.002));
#754=CARTESIAN_POINT('',(0.066,-0.1016,0.002));
#755=CARTESIAN_POINT('',(0.066,0.073,0.002));
#756=CARTESIAN_POINT('',(0.034,0.073,0.002));
#757=CARTESIAN_POINT('',(0.024,0.073,0.002));
#758=CARTESIAN_POINT('',(0.024,0.075,0.002));
#759=CARTESIAN_POINT('',(0.066,-0.1016,0.0215));
#760=CARTESIAN_POINT('',(0.066,-0.0996,0.0215));
#761=CARTESIAN_POINT('',(0.066,0.073,0.0215));
#762=CARTESIAN_POINT('',(0.034,-0.0996,0.0215));
#763=CARTESIAN_POINT('',(0.024,0.075,0.005));
#764=CARTESIAN_POINT('',(0.024,0.073,0.005));
#765=CARTESIAN_POINT('',(0.024,0.073,0.012));
#766=CARTESIAN_POINT('',(0.024,0.075,0.012));
#767=CARTESIAN_POINT('',(0.011,0.075,0.012));
#768=CARTESIAN_POINT('',(0.011,0.073,0.012));
#769=CARTESIAN_POINT('',(0.034,0.073,0.0215));
#770=CARTESIAN_POINT('',(0.005,-0.1016,0.005));
#771=CARTESIAN_POINT('',(0.005,-0.1016,0.015));
#772=CARTESIAN_POINT('',(0.00146446609406726,0.,0.0114644660940673));
#773=CARTESIAN_POINT('',(0.027,0.075,0.005));
#774=CARTESIAN_POINT('',(0.063,-0.1016,0.005));
#775=CARTESIAN_POINT('',(0.011,0.,0.005));
#776=CARTESIAN_POINT('',(0.005,0.,0.00396446609406726));
#777=CARTESIAN_POINT('',(0.005,0.,0.00792893218813452));
#778=CARTESIAN_POINT('',(0.00323223304703363,0.,0.00969669914110089));
#779=MECHANICAL_DESIGN_GEOMETRIC_PRESENTATION_REPRESENTATION('',(#475),
#780);
#780=(
GEOMETRIC_REPRESENTATION_CONTEXT(3)
GLOBAL_UNCERTAINTY_ASSIGNED_CONTEXT((#781))
GLOBAL_UNIT_ASSIGNED_CONTEXT((#784,#783,#782))
REPRESENTATION_CONTEXT('Sawstop rail drawer','TOP_LEVEL_ASSEMBLY_PART')
);
#781=UNCERTAINTY_MEASURE_WITH_UNIT(LENGTH_MEASURE(1.E-8),#784,
'DISTANCE_ACCURACY_VALUE','Maximum Tolerance applied to model');
#782=(
NAMED_UNIT(*)
SI_UNIT($,.STERADIAN.)
SOLID_ANGLE_UNIT()
);
#783=(
NAMED_UNIT(*)
PLANE_ANGLE_UNIT()
SI_UNIT($,.RADIAN.)
);
#784=(
LENGTH_UNIT()
NAMED_UNIT(*)
SI_UNIT($,.METRE.)
);
#785=PRODUCT_DEFINITION_SHAPE('','',#786);
#786=PRODUCT_DEFINITION('','',#788,#787);
#787=PRODUCT_DEFINITION_CONTEXT('',#794,'design');
#788=PRODUCT_DEFINITION_FORMATION_WITH_SPECIFIED_SOURCE('','',#790,
 .NOT_KNOWN.);
#789=PRODUCT_RELATED_PRODUCT_CATEGORY('','',(#790));
#790=PRODUCT('Sawstop rail drawer','Sawstop rail drawer',
'Sawstop rail drawer',(#792));
#791=PRODUCT_CATEGORY('','');
#792=PRODUCT_CONTEXT('',#794,'mechanical');
#793=APPLICATION_PROTOCOL_DEFINITION('international standard',
'ap242_managed_model_based_3d_engineering',2020,#794);
#794=APPLICATION_CONTEXT('managed model based 3d engineering');
ENDSEC;
END-ISO-10303-21;
